<?xml version="1.0" encoding="utf-8"?>
<!-- Generator: Adobe Illustrator 14.0.0, SVG Export Plug-In . SVG Version: 6.00 Build 43363)  -->
<!DOCTYPE svg PUBLIC "-//W3C//DTD SVG 1.0//EN" "http://www.w3.org/TR/2001/REC-SVG-20010904/DTD/svg10.dtd">
<svg version="1.0"
	 id="svg2" sodipodi:docname="tex_logo.svg" sodipodi:docbase="/home/alejo" sodipodi:version="0.32" inkscape:version="0.43" xmlns:dc="http://purl.org/dc/elements/1.1/" xmlns:cc="http://web.resource.org/cc/" xmlns:rdf="http://www.w3.org/1999/02/22-rdf-syntax-ns#" xmlns:svg="http://www.w3.org/2000/svg" xmlns:sodipodi="http://inkscape.sourceforge.net/DTD/sodipodi-0.dtd" xmlns:inkscape="http://www.inkscape.org/namespaces/inkscape"
	 xmlns="http://www.w3.org/2000/svg" xmlns:xlink="http://www.w3.org/1999/xlink" x="0px" y="0px" width="2007.895px"
	 height="469.083px" viewBox="33.158 99.16 2007.895 469.083" enable-background="new 33.158 99.16 2007.895 469.083"
	 xml:space="preserve">
<sodipodi:namedview  id="base" inkscape:window-height="767" inkscape:window-width="1214" inkscape:pageopacity="0.0" inkscape:window-y="0" inkscape:pageshadow="2" inkscape:current-layer="svg2" inkscape:window-x="0" inkscape:zoom="0.43415836" inkscape:cy="417.84947" inkscape:cx="305.25953" pagecolor="#ffffff" bordercolor="#666666" borderopacity="1.0">
	</sodipodi:namedview>
<g>
	<path d="M210.546,469.738c-94.811,0-177.388-80.027-177.388-185.543c0-103.985,82.067-185.033,177.388-185.033
		c48.935,0,74.931,25.486,93.791,43.837l25.487-37.722c4.078-6.116,6.117-6.116,8.156-6.116c5.606,0,5.606,3.567,5.606,12.233
		v120.808c0,10.703,0,12.232-8.156,12.232c-7.136,0-7.136-1.529-8.155-8.666c-10.194-74.421-55.562-120.807-111.123-120.807
		c-31.094,0-130.492,17.331-130.492,169.742c0,151.899,99.908,169.23,131.002,169.23c55.561,0,110.103-41.798,114.181-114.689
		c0.511-5.098,0.511-8.155,6.117-8.155c6.626,0,6.626,3.568,6.626,8.665C343.587,398.885,293.633,469.738,210.546,469.738z"/>
	<path d="M499.676,464.131c-59.64,0-112.651-48.936-112.651-114.69c0-63.717,49.444-119.277,113.161-119.277
		c61.679,0,112.651,54.031,112.651,119.277C612.837,414.177,561.354,464.131,499.676,464.131z M557.275,274.509
		c-13.253-21.918-35.173-33.133-57.601-33.133c-20.39,0-44.348,10.705-58.109,34.151c-12.233,22.43-12.233,49.954-12.233,69.834
		c0,18.352,0,49.444,12.743,71.873c13.763,23.447,36.19,34.151,58.109,34.151c25.486,0,47.915-14.782,59.13-37.72
		c11.214-22.43,11.214-49.954,11.214-68.306C570.528,325.992,570.528,296.428,557.275,274.509z"/>
	<path d="M843.237,456.993l-57.602,1.529v-15.802c34.152,0,39.76,0,39.76-22.938V301.016c0-29.056-5.606-56.581-37.721-56.581
		c-32.623,0-68.813,28.545-68.813,81.559v93.791c0,22.938,5.606,22.938,39.76,22.938v15.802l-57.091-1.529l-57.601,1.529v-15.802
		c34.152,0,39.761,0,39.761-22.938V283.175c0-24.979-4.078-28.545-39.761-28.545v-15.803l71.873-5.606v53.522
		c14.272-31.604,38.229-53.522,75.44-53.522c29.563,0,46.386,10.194,53.521,18.86c15.803,18.351,15.803,34.151,15.803,77.988v97.359
		c0.51,15.292,13.253,15.292,39.759,15.292v15.802L843.237,456.993z"/>
	<path d="M1247.223,228.123c-7.135-82.067-14.781-98.89-91.752-98.89c-9.684,0-23.447,0-29.055,1.021
		c-9.176,2.039-9.176,9.175-9.176,19.37v268.63c0,17.331,0,24.468,53.521,24.468h20.391v15.802
		c-20.898-1.529-73.402-1.529-96.85-1.529c-23.449,0-75.441,0-96.34,1.529v-15.802h20.39c53.521,0,53.521-7.137,53.521-24.468
		v-268.63c0-11.725,0-17.331-10.703-19.37c-5.098-1.021-18.352-1.021-27.527-1.021c-76.969,0-84.614,16.821-91.751,98.89h-12.742
		l9.685-114.69h311.448l9.686,114.69H1247.223L1247.223,228.123z"/>
</g>
<g>
	<path d="M1511.967,568.243H1217.85v-15.802h12.234c39.25,0,40.27-5.606,40.27-23.958v-267.1c0-18.351-1.02-23.958-40.27-23.958
		h-12.234v-15.802h286.98l14.271,114.689h-12.742c-8.154-70.853-21.918-98.889-99.908-98.889h-65.756
		c-23.957,0-24.977,3.568-24.977,20.39v122.337h45.875c49.445,0,55.053-15.802,55.053-59.64h12.742v135.08h-12.742
		c0-43.327-5.607-59.639-55.053-59.639h-45.875v136.099c0,16.82,1.02,20.39,24.977,20.39h67.795
		c87.676,0,99.398-37.211,112.143-115.71h12.744L1511.967,568.243z"/>
</g>
<g>
	<path d="M1793.323,456.993c-19.369,0-56.58,0-74.422,1.529v-15.802c21.92-0.51,33.133-9.175,33.133-15.292
		c0-1.529-1.529-3.568-2.549-5.607l-80.537-121.825l-72.383,107.044c-3.568,5.606-5.098,7.646-5.098,12.232
		c0,9.176,8.664,22.938,32.113,23.448v15.802c-18.352-1.529-46.387-1.529-65.246-1.529l-56.582,1.529v-15.802
		c51.484,0,66.775-23.448,73.912-33.643l83.598-123.355l-93.793-141.707c-9.684-14.272-19.369-17.841-47.404-17.841h-9.686v-15.802
		l66.266,1.528c19.371,0,56.58,0,74.422-1.528v15.802c-21.918,0.51-33.133,9.175-33.133,15.292c0,2.039,2.549,6.117,3.568,7.646
		l65.756,98.379l58.109-86.146c3.566-5.607,4.588-6.626,4.588-11.724c0-11.725-11.215-22.938-31.605-23.448v-15.802
		c20.391,1.528,44.857,1.528,65.246,1.528l56.582-1.528v15.802c-45.367,0.51-62.699,16.821-73.912,33.133l-69.834,102.457
		l107.555,162.604c10.705,15.803,21.41,18.352,47.916,18.352h9.684v15.802L1793.323,456.993z"/>
	<path d="M1990.59,464.131c-18.35,0-65.756-6.117-65.756-68.814V254.63h-43.328v-11.215c49.955-2.039,65.246-56.581,65.756-98.379
		h12.744v93.791h72.893v15.803h-72.893v141.706c0,8.665,0,55.051,34.152,55.051c18.859,0,34.15-19.369,34.15-57.09v-28.035h12.744
		v29.055C2041.055,427.94,2026.782,464.131,1990.59,464.131z"/>
</g>
</svg>
